<svg width="8" height="8" viewBox="0 0 8 8" fill="none" xmlns="http://www.w3.org/2000/svg">
<path d="M3.64644 3.41137L3.99999 3.76492L4.35354 3.41137L7.18221 0.582699C7.24726 0.517651 7.35272 0.517652 7.41777 0.582699L7.77132 0.229146L7.41777 0.582699C7.48282 0.647747 7.48282 0.753211 7.41777 0.818259L4.5891 3.64693L4.23555 4.00048L4.5891 4.35403L7.41777 7.1827C7.48282 7.24775 7.48282 7.35321 7.41777 7.41826C7.35272 7.48331 7.24726 7.48331 7.18221 7.41826L4.35354 4.58959L3.99999 4.23604L3.64644 4.58959L0.817771 7.41826C0.752723 7.48331 0.647259 7.48331 0.582211 7.41826L0.235328 7.76514L0.582211 7.41826C0.517163 7.35321 0.517163 7.24775 0.582211 7.1827L3.41088 4.35403L3.76443 4.00048L3.41088 3.64693L0.582211 0.818259C0.517163 0.753211 0.517163 0.647747 0.582211 0.582699C0.647259 0.517651 0.752723 0.517651 0.817771 0.582699L3.64644 3.41137Z" fill="black" stroke="#101010"/>
</svg>
